<mxfile host="app.diagrams.net" modified="2024-07-23T10:08:18.395Z" agent="Mozilla/5.0 (Windows NT 10.0; Win64; x64) AppleWebKit/537.36 (KHTML, like Gecko) Chrome/126.0.0.0 Safari/537.36" version="24.7.2" etag="UFtEcT7r4G0dJBEoRXwF" type="github">
  <diagram name="Page-1" id="c-Anyl1rTpejHALxn3Vc">
    <mxGraphModel>
      <root>
        <mxCell id="0" />
        <mxCell id="1" parent="0" />
      </root>
    </mxGraphModel>
  </diagram>
</mxfile>
